<svg xmlns="http://www.w3.org/2000/svg" viewBox="0 0 1000 80" width="1000" height="80"><path d="M10,40 L455,40 M545,40 L990,40" stroke="#3A2E2A" stroke-width="1.2"/><path d="M500.0,40.0 C494.3,29.4 480.2,23.4 470.6,23.0 C475.8,30.9 488.2,40.1 500.0,40.0Z" fill="none" stroke="#3A2E2A" stroke-width="1.2" stroke-linejoin="round"/><path d="M497.6,38.6 Q487.1,31.7 476.0,25.9" fill="none" stroke="#3A2E2A" stroke-width="0.72" stroke-linecap="round"/><path d="M500.0,40.0 C512.0,40.4 524.3,31.1 529.4,23.0 C520.0,23.6 505.8,29.7 500.0,40.0Z" fill="none" stroke="#3A2E2A" stroke-width="1.2" stroke-linejoin="round"/><path d="M502.4,38.6 Q513.6,33.0 524.3,26.3" fill="none" stroke="#3A2E2A" stroke-width="0.72" stroke-linecap="round"/><path d="M500.0,40.0 C505.2,32.2 503.8,20.5 500.0,14.0 C496.5,20.5 495.0,32.2 500.0,40.0Z" fill="none" stroke="#3A2E2A" stroke-width="1.2" stroke-linejoin="round"/><path d="M500.0,37.9 Q500.6,28.3 500.2,18.7" fill="none" stroke="#3A2E2A" stroke-width="0.72" stroke-linecap="round"/><path d="M500.0,40.0 C499.5,30.1 491.0,20.6 483.9,17.1 C485.1,24.8 491.1,36.0 500.0,40.0Z" fill="none" stroke="#3A2E2A" stroke-width="1.2" stroke-linejoin="round"/><path d="M498.7,38.2 Q493.3,29.3 487.0,21.1" fill="none" stroke="#3A2E2A" stroke-width="0.72" stroke-linecap="round"/><path d="M500.0,40.0 C509.1,36.1 515.1,24.9 516.1,17.1 C509.2,20.8 500.7,30.3 500.0,40.0Z" fill="none" stroke="#3A2E2A" stroke-width="1.2" stroke-linejoin="round"/><path d="M501.3,38.2 Q507.7,30.0 513.3,21.3" fill="none" stroke="#3A2E2A" stroke-width="0.72" stroke-linecap="round"/></svg>